<svg width="103" height="37" viewBox="0 0 103 37" fill="none" xmlns="http://www.w3.org/2000/svg">
<path d="M1.76967 36.2688C1.29373 36.2688 0.901072 36.1142 0.591708 35.8048C0.282345 35.4954 0.127663 35.1028 0.127663 34.6268V18.0997C0.15146 16.2435 0.591708 14.5658 1.44841 13.0666C2.3289 11.5673 3.50687 10.3894 4.98229 9.53267C6.45772 8.67597 8.12353 8.24762 9.97971 8.24762C11.8597 8.24762 13.5374 8.68787 15.0128 9.56837C16.512 10.4251 17.69 11.603 18.5467 13.1023C19.4272 14.5777 19.8674 16.2673 19.8674 18.1711C19.8674 20.051 19.451 21.7406 18.6181 23.2399C17.809 24.7391 16.7024 25.917 15.2984 26.7737C13.8944 27.6304 12.3118 28.0588 10.5508 28.0588C9.05162 28.0588 7.69518 27.7494 6.48152 27.1307C5.26786 26.512 4.24458 25.6791 3.41168 24.632V34.6268C3.41168 35.1028 3.257 35.4954 2.94763 35.8048C2.66207 36.1142 2.26941 36.2688 1.76967 36.2688ZM9.97971 25.1317C11.241 25.1317 12.3713 24.8343 13.3708 24.2393C14.3941 23.6206 15.1913 22.7877 15.7624 21.7406C16.3574 20.6698 16.6548 19.4799 16.6548 18.1711C16.6548 16.8384 16.3574 15.6486 15.7624 14.6015C15.1913 13.5306 14.3941 12.6977 13.3708 12.1028C12.3713 11.484 11.241 11.1747 9.97971 11.1747C8.71846 11.1747 7.57619 11.484 6.55291 12.1028C5.55343 12.7215 4.76812 13.5544 4.19699 14.6015C3.62585 15.6486 3.34029 16.8384 3.34029 18.1711C3.34029 19.4799 3.62585 20.6698 4.19699 21.7406C4.76812 22.7877 5.55343 23.6206 6.55291 24.2393C7.57619 24.8343 8.71846 25.1317 9.97971 25.1317ZM29.8272 28.0588C28.0424 28.0588 26.448 27.6304 25.044 26.7737C23.6399 25.917 22.5334 24.7391 21.7243 23.2399C20.9152 21.7406 20.5106 20.051 20.5106 18.1711C20.5106 16.2673 20.9389 14.5777 21.7956 13.1023C22.6761 11.603 23.8541 10.4251 25.3295 9.56837C26.8288 8.68787 28.5065 8.24762 30.3626 8.24762C32.2426 8.24762 33.9203 8.68787 35.3958 9.56837C36.8712 10.4251 38.0372 11.603 38.8939 13.1023C39.7744 14.6015 40.2266 16.2911 40.2504 18.1711L38.9653 18.4923C38.9653 20.3009 38.5608 21.931 37.7517 23.3826C36.9426 24.8343 35.8479 25.9765 34.4677 26.8094C33.1112 27.6423 31.5644 28.0588 29.8272 28.0588ZM30.3626 25.1317C31.6477 25.1317 32.79 24.8343 33.7894 24.2393C34.7889 23.6206 35.5742 22.7877 36.1454 21.7406C36.7403 20.6698 37.0378 19.4799 37.0378 18.1711C37.0378 16.8384 36.7403 15.6486 36.1454 14.6015C35.5742 13.5306 34.7889 12.6977 33.7894 12.1028C32.79 11.484 31.6477 11.1747 30.3626 11.1747C29.1252 11.1747 27.9948 11.484 26.9715 12.1028C25.9483 12.6977 25.1392 13.5306 24.5442 14.6015C23.9731 15.6486 23.6875 16.8384 23.6875 18.1711C23.6875 19.4799 23.9731 20.6698 24.5442 21.7406C25.1392 22.7877 25.9483 23.6206 26.9715 24.2393C27.9948 24.8343 29.1252 25.1317 30.3626 25.1317ZM38.5727 27.9517C38.0967 27.9517 37.7041 27.797 37.3947 27.4877C37.0854 27.1783 36.9307 26.7856 36.9307 26.3097V20.5984L37.6089 17.1716L40.2504 18.1711V26.3097C40.2504 26.7856 40.0838 27.1783 39.7506 27.4877C39.4413 27.797 39.0486 27.9517 38.5727 27.9517ZM58.4453 27.9517C57.9693 27.9517 57.5648 27.797 57.2316 27.4877C56.9223 27.1545 56.7676 26.7619 56.7676 26.3097V17.3144C56.7676 15.9103 56.5058 14.7681 55.9823 13.8876C55.4587 12.9833 54.7567 12.3169 53.8762 11.8886C52.9957 11.4364 51.9843 11.2104 50.8421 11.2104C49.7712 11.2104 48.8074 11.4245 47.9507 11.8529C47.094 12.2812 46.4039 12.8524 45.8804 13.5663C45.3806 14.2802 45.1307 15.1012 45.1307 16.0293H42.989C43.0128 14.5301 43.3935 13.1974 44.1313 12.0314C44.869 10.8415 45.8685 9.91342 47.1297 9.2471C48.391 8.55698 49.8069 8.21192 51.3775 8.21192C53.0433 8.21192 54.5306 8.56888 55.8395 9.2828C57.1483 9.97292 58.1835 10.9962 58.945 12.3526C59.7065 13.7091 60.0873 15.363 60.0873 17.3144V26.3097C60.0873 26.7619 59.9207 27.1545 59.5875 27.4877C59.2782 27.797 58.8974 27.9517 58.4453 27.9517ZM43.4887 27.9517C43.0128 27.9517 42.6201 27.797 42.3108 27.4877C42.0014 27.1783 41.8467 26.7856 41.8467 26.3097V10.0324C41.8467 9.53267 42.0014 9.14002 42.3108 8.85445C42.6201 8.54508 43.0128 8.3904 43.4887 8.3904C43.9885 8.3904 44.3811 8.54508 44.6667 8.85445C44.9761 9.14002 45.1307 9.53267 45.1307 10.0324V26.3097C45.1307 26.7856 44.9761 27.1783 44.6667 27.4877C44.3811 27.797 43.9885 27.9517 43.4887 27.9517ZM71.1754 28.0588C69.3192 28.0588 67.6415 27.6304 66.1423 26.7737C64.6668 25.8933 63.4889 24.7034 62.6084 23.2042C61.7517 21.7049 61.3233 20.0153 61.3233 18.1354C61.3233 16.2554 61.7279 14.5777 62.537 13.1023C63.3461 11.603 64.4527 10.4251 65.8567 9.56837C67.2607 8.68787 68.8551 8.24762 70.6399 8.24762C72.1154 8.24762 73.4599 8.55698 74.6736 9.17571C75.911 9.79444 76.9343 10.6273 77.7434 11.6744V1.67959C77.7434 1.17985 77.8981 0.787194 78.2074 0.501629C78.5168 0.192265 78.9095 0.0375827 79.3854 0.0375827C79.8851 0.0375827 80.2897 0.192265 80.5991 0.501629C80.9084 0.787194 81.0631 1.17985 81.0631 1.67959V18.2068C81.0393 20.0629 80.5872 21.7406 79.7067 23.2399C78.85 24.7391 77.672 25.917 76.1728 26.7737C74.6974 27.6304 73.0315 28.0588 71.1754 28.0588ZM71.1754 25.1317C72.4604 25.1317 73.6027 24.8343 74.6022 24.2393C75.6016 23.6206 76.387 22.7877 76.9581 21.7406C77.553 20.6698 77.8505 19.468 77.8505 18.1354C77.8505 16.8027 77.553 15.6129 76.9581 14.5658C76.387 13.5187 75.6016 12.6977 74.6022 12.1028C73.6027 11.484 72.4604 11.1747 71.1754 11.1747C69.9379 11.1747 68.8075 11.484 67.7843 12.1028C66.761 12.6977 65.9519 13.5187 65.3569 14.5658C64.7858 15.6129 64.5002 16.8027 64.5002 18.1354C64.5002 19.468 64.7858 20.6698 65.3569 21.7406C65.9519 22.7877 66.761 23.6206 67.7843 24.2393C68.8075 24.8343 69.9379 25.1317 71.1754 25.1317ZM92.0223 28.0588C90.2376 28.0588 88.6431 27.6304 87.2391 26.7737C85.8351 25.917 84.7285 24.7391 83.9194 23.2399C83.1103 21.7406 82.7057 20.051 82.7057 18.1711C82.7057 16.2673 83.1341 14.5777 83.9908 13.1023C84.8713 11.603 86.0492 10.4251 87.5247 9.56837C89.0239 8.68787 90.7016 8.24762 92.5578 8.24762C94.4378 8.24762 96.1155 8.68787 97.5909 9.56837C99.0663 10.4251 100.232 11.603 101.089 13.1023C101.97 14.6015 102.422 16.2911 102.446 18.1711L101.16 18.4923C101.16 20.3009 100.756 21.931 99.9468 23.3826C99.1377 24.8343 98.043 25.9765 96.6628 26.8094C95.3064 27.6423 93.7595 28.0588 92.0223 28.0588ZM92.5578 25.1317C93.8428 25.1317 94.9851 24.8343 95.9846 24.2393C96.9841 23.6206 97.7694 22.7877 98.3405 21.7406C98.9354 20.6698 99.2329 19.4799 99.2329 18.1711C99.2329 16.8384 98.9354 15.6486 98.3405 14.6015C97.7694 13.5306 96.9841 12.6977 95.9846 12.1028C94.9851 11.484 93.8428 11.1747 92.5578 11.1747C91.3203 11.1747 90.19 11.484 89.1667 12.1028C88.1434 12.6977 87.3343 13.5306 86.7394 14.6015C86.1682 15.6486 85.8827 16.8384 85.8827 18.1711C85.8827 19.4799 86.1682 20.6698 86.7394 21.7406C87.3343 22.7877 88.1434 23.6206 89.1667 24.2393C90.19 24.8343 91.3203 25.1317 92.5578 25.1317ZM100.768 27.9517C100.292 27.9517 99.8992 27.797 99.5899 27.4877C99.2805 27.1783 99.1258 26.7856 99.1258 26.3097V20.5984L99.804 17.1716L102.446 18.1711V26.3097C102.446 26.7856 102.279 27.1783 101.946 27.4877C101.636 27.797 101.244 27.9517 100.768 27.9517Z" fill="#673AB7"/>
</svg>
