<svg width="50" height="50" viewBox="0 0 50 50" fill="none" xmlns="http://www.w3.org/2000/svg">
<rect width="50" height="50" rx="25" fill="url(#paint0_linear_1606_4281)"/>
<path d="M32.5 26.248H26.25V32.498C26.25 32.8296 26.1183 33.1475 25.8839 33.3819C25.6495 33.6164 25.3315 33.748 25 33.748C24.6685 33.748 24.3505 33.6164 24.1161 33.3819C23.8817 33.1475 23.75 32.8296 23.75 32.498V26.248H17.5C17.1685 26.248 16.8505 26.1164 16.6161 25.8819C16.3817 25.6475 16.25 25.3296 16.25 24.998C16.25 24.6665 16.3817 24.3486 16.6161 24.1142C16.8505 23.8797 17.1685 23.748 17.5 23.748H23.75V17.498C23.75 17.1665 23.8817 16.8486 24.1161 16.6142C24.3505 16.3797 24.6685 16.248 25 16.248C25.3315 16.248 25.6495 16.3797 25.8839 16.6142C26.1183 16.8486 26.25 17.1665 26.25 17.498V23.748H32.5C32.8315 23.748 33.1495 23.8797 33.3839 24.1142C33.6183 24.3486 33.75 24.6665 33.75 24.998C33.75 25.3296 33.6183 25.6475 33.3839 25.8819C33.1495 26.1164 32.8315 26.248 32.5 26.248Z" fill="white"/>
<defs>
<linearGradient id="paint0_linear_1606_4281" x1="2.51107e-07" y1="56.0734" x2="64.7481" y2="30.2225" gradientUnits="userSpaceOnUse">
<stop stop-color="#7942FB"/>
<stop offset="1" stop-color="#B091F9"/>
</linearGradient>
</defs>
</svg>
