<svg width="50" height="30" viewBox="0 0 50 30" fill="none" xmlns="http://www.w3.org/2000/svg">
<path fill-rule="evenodd" clip-rule="evenodd" d="M45.8334 29.5C46.6574 29.4998 47.4628 29.2554 48.1478 28.7975C48.8329 28.3397 49.3668 27.689 49.6821 26.9277C49.9974 26.1665 50.0799 25.3288 49.9192 24.5207C49.7585 23.7126 49.3618 22.9702 48.7793 22.3875L27.9459 1.55417C27.1646 0.773043 26.1049 0.334229 25.0001 0.334229C23.8952 0.334229 22.8356 0.773043 22.0543 1.55417L1.22092 22.3875C0.638384 22.9702 0.241689 23.7126 0.0809908 24.5207C-0.0797073 25.3288 0.00280624 26.1665 0.318098 26.9277C0.63339 27.689 1.1673 28.3397 1.85235 28.7975C2.53739 29.2554 3.3428 29.4998 4.16676 29.5H45.8334Z" fill="black"/>
</svg>
