<svg width="24" height="24" viewBox="0 0 24 24" fill="none" xmlns="http://www.w3.org/2000/svg">
<path fill-rule="evenodd" clip-rule="evenodd" d="M8.7615 16.0798C8.87203 16.1828 8.96068 16.307 9.02217 16.445C9.08366 16.583 9.11672 16.732 9.11939 16.8831C9.12205 17.0341 9.09427 17.1842 9.03768 17.3242C8.9811 17.4643 8.89689 17.5916 8.79006 17.6984C8.68323 17.8052 8.55598 17.8894 8.4159 17.946C8.27581 18.0026 8.12577 18.0304 7.97472 18.0277C7.82366 18.0251 7.67469 17.992 7.53669 17.9305C7.39869 17.869 7.27449 17.7804 7.1715 17.6698L2.2965 12.7948L1.5 11.9998L2.295 11.2048L7.17 6.32985C7.38208 6.12482 7.6662 6.01129 7.96118 6.01371C8.25615 6.01613 8.53837 6.13432 8.74706 6.3428C8.95574 6.55129 9.07419 6.8334 9.07689 7.12837C9.07959 7.42334 8.96633 7.70757 8.7615 7.91985L5.8065 10.8748H21.375C21.6734 10.8748 21.9595 10.9934 22.1705 11.2044C22.3815 11.4153 22.5 11.7015 22.5 11.9998C22.5 12.2982 22.3815 12.5844 22.1705 12.7953C21.9595 13.0063 21.6734 13.1248 21.375 13.1248H5.8065L8.7615 16.0798Z" fill="#444D61"/>
</svg>
