<svg width="261" height="70" viewBox="0 0 261 70" fill="none" xmlns="http://www.w3.org/2000/svg">
<path d="M36.1541 55.5406C33.8717 55.5406 31.8535 55 30.0996 53.9188C28.3457 52.8377 26.9643 51.312 25.9552 49.3419C24.9701 47.3718 24.4776 45.0533 24.4776 42.3865C24.4776 39.7196 24.9701 37.4011 25.9552 35.431C26.9643 33.4369 28.3457 31.8992 30.0996 30.8181C31.8535 29.7129 33.8717 29.1603 36.1541 29.1603C38.2203 29.1603 40.0703 29.6168 41.7041 30.5298C43.3378 31.4187 44.6712 32.6801 45.7044 34.3138L42.7852 36.0437C42.0404 34.8904 41.1034 34.0015 39.9742 33.3768C38.845 32.7521 37.5716 32.4398 36.1541 32.4398C34.5204 32.4398 33.0788 32.8482 31.8295 33.6651C30.6042 34.482 29.6431 35.6352 28.9464 37.1248C28.2496 38.5904 27.9013 40.3443 27.9013 42.3865C27.9013 44.4046 28.2496 46.1585 28.9464 47.6481C29.6431 49.1137 30.6042 50.2549 31.8295 51.0718C33.0788 51.8887 34.5204 52.2971 36.1541 52.2971C37.5716 52.2971 38.845 51.9848 39.9742 51.3601C41.1034 50.7354 42.0404 49.8465 42.7852 48.6932L45.7044 50.4231C44.6712 52.0328 43.3378 53.2942 41.7041 54.2071C40.0703 55.0961 38.2203 55.5406 36.1541 55.5406ZM49.5929 55V29.1603H52.8363V55H49.5929ZM58.2289 55V37.7014H61.4364V55H58.2289ZM59.8146 34.458C59.214 34.458 58.6974 34.2537 58.265 33.8453C57.8565 33.4128 57.6523 32.8963 57.6523 32.2956C57.6523 31.695 57.8565 31.1905 58.265 30.782C58.6974 30.3496 59.214 30.1333 59.8146 30.1333C60.3912 30.1333 60.8838 30.3496 61.2922 30.782C61.7247 31.1905 61.9409 31.695 61.9409 32.2956C61.9409 32.8963 61.7247 33.4128 61.2922 33.8453C60.8838 34.2537 60.3912 34.458 59.8146 34.458ZM74.1546 55.3964C72.5209 55.3964 71.0793 55.0481 69.83 54.3513C68.5806 53.6546 67.6076 52.6335 66.9109 51.288C66.2141 49.9185 65.8657 48.2728 65.8657 46.3507C65.8657 44.5007 66.2141 42.903 66.9109 41.5576C67.6076 40.1881 68.5566 39.131 69.7579 38.3862C70.9832 37.6414 72.3887 37.269 73.9744 37.269C75.5601 37.269 76.9056 37.6654 78.0108 38.4583C79.14 39.2271 79.9929 40.2602 80.5695 41.5576C81.1701 42.855 81.4705 44.2725 81.4705 45.8101V46.6751H69.0371C69.0852 48.5971 69.5657 50.0627 70.4787 51.0718C71.4157 52.0568 72.653 52.5494 74.1907 52.5494C75.416 52.5494 76.4251 52.249 77.2179 51.6484C78.0348 51.0478 78.7195 50.1468 79.2721 48.9455L81.7227 50.5672C80.9059 52.249 79.8607 53.4744 78.5874 54.2432C77.338 55.012 75.8605 55.3964 74.1546 55.3964ZM69.2173 44.0803H78.2991C78.1069 42.8309 77.6263 41.8219 76.8575 41.053C76.0887 40.2842 75.1157 39.8998 73.9384 39.8998C72.6891 39.8998 71.6559 40.2602 70.8391 40.981C70.0222 41.6777 69.4816 42.7108 69.2173 44.0803ZM85.6315 55V37.7014H88.5507L88.7309 39.9358C89.2354 39.2151 89.9081 38.5904 90.749 38.0618C91.6139 37.5333 92.599 37.269 93.7042 37.269C95.5301 37.269 97.0077 37.8576 98.1369 39.0349C99.2902 40.1881 99.8668 41.8699 99.8668 44.0803V55H96.6594V44.765C96.6594 43.2514 96.323 42.1222 95.6503 41.3774C94.9776 40.6086 94.1006 40.2241 93.0195 40.2241C91.7941 40.2241 90.7971 40.6326 90.0282 41.4495C89.2594 42.2423 88.875 43.3115 88.875 44.6569V55H85.6315ZM110.957 55.3964C109.324 55.3964 108.086 55.0841 107.245 54.4594C106.405 53.8107 105.984 52.5854 105.984 50.7835V40.5125H102.488V37.7014H105.984V31.5028H109.192V37.7014H114.201V40.5125H109.192V50.0987C109.192 51.0357 109.396 51.6724 109.804 52.0088C110.237 52.3211 110.873 52.4773 111.714 52.4773C112.147 52.4773 112.591 52.4172 113.048 52.2971C113.528 52.1529 113.913 52.0088 114.201 51.8646V54.8558C113.816 55.024 113.324 55.1562 112.723 55.2523C112.123 55.3484 111.534 55.3964 110.957 55.3964ZM128.225 55V29.7729H131.504V51.9007H145.019V55H128.225ZM155.557 55.3964C153.971 55.3964 152.553 55.024 151.304 54.2792C150.079 53.5104 149.106 52.4413 148.385 51.0718C147.688 49.7023 147.34 48.1166 147.34 46.3147C147.34 44.5127 147.688 42.9391 148.385 41.5936C149.106 40.2241 150.079 39.167 151.304 38.4222C152.553 37.6534 153.971 37.269 155.557 37.269C157.142 37.269 158.548 37.6534 159.773 38.4222C161.023 39.167 161.996 40.2241 162.692 41.5936C163.413 42.9391 163.773 44.5127 163.773 46.3147C163.773 48.1166 163.413 49.7023 162.692 51.0718C161.996 52.4413 161.023 53.5104 159.773 54.2792C158.548 55.024 157.142 55.3964 155.557 55.3964ZM155.557 52.4413C157.022 52.4413 158.212 51.9007 159.124 50.8195C160.061 49.7143 160.53 48.2127 160.53 46.3147C160.53 44.4166 160.061 42.927 159.124 41.8459C158.212 40.7647 157.022 40.2241 155.557 40.2241C154.091 40.2241 152.89 40.7647 151.953 41.8459C151.04 42.927 150.583 44.4166 150.583 46.3147C150.583 48.2127 151.04 49.7143 151.953 50.8195C152.89 51.9007 154.091 52.4413 155.557 52.4413ZM174.624 62.46C171.261 62.46 168.75 61.1386 167.092 58.4957L169.687 56.7299C170.768 58.5558 172.414 59.4688 174.624 59.4688C176.186 59.4688 177.363 58.9643 178.156 57.9552C178.949 56.9701 179.345 55.4325 179.345 53.3422V51.4322C178.769 52.1529 178.06 52.7176 177.219 53.126C176.402 53.5344 175.489 53.7386 174.48 53.7386C172.99 53.7386 171.657 53.4143 170.48 52.7656C169.302 52.1169 168.378 51.1799 167.705 49.9546C167.056 48.7052 166.732 47.2156 166.732 45.4858C166.732 43.7319 167.056 42.2543 167.705 41.053C168.378 39.8277 169.302 38.8907 170.48 38.242C171.657 37.5933 172.99 37.269 174.48 37.269C175.537 37.269 176.498 37.4972 177.363 37.9537C178.252 38.3862 178.997 38.9988 179.598 39.7917L179.706 37.7014H182.553V53.3422C182.553 56.3214 181.868 58.5798 180.499 60.1175C179.153 61.6792 177.195 62.46 174.624 62.46ZM174.696 50.8916C176.114 50.8916 177.279 50.3991 178.192 49.414C179.105 48.429 179.561 47.1195 179.561 45.4858C179.561 43.852 179.105 42.5546 178.192 41.5936C177.279 40.6326 176.114 40.1521 174.696 40.1521C173.303 40.1521 172.162 40.6326 171.273 41.5936C170.408 42.5546 169.975 43.852 169.975 45.4858C169.975 47.1195 170.408 48.429 171.273 49.414C172.162 50.3991 173.303 50.8916 174.696 50.8916ZM187.989 55V37.7014H191.197V55H187.989ZM189.575 34.458C188.974 34.458 188.458 34.2537 188.025 33.8453C187.617 33.4128 187.413 32.8963 187.413 32.2956C187.413 31.695 187.617 31.1905 188.025 30.782C188.458 30.3496 188.974 30.1333 189.575 30.1333C190.152 30.1333 190.644 30.3496 191.052 30.782C191.485 31.1905 191.701 31.695 191.701 32.2956C191.701 32.8963 191.485 33.4128 191.052 33.8453C190.644 34.2537 190.152 34.458 189.575 34.458ZM196.563 55V37.7014H199.482L199.662 39.9358C200.167 39.2151 200.84 38.5904 201.681 38.0618C202.545 37.5333 203.531 37.269 204.636 37.269C206.462 37.269 207.939 37.8576 209.068 39.0349C210.222 40.1881 210.798 41.8699 210.798 44.0803V55H207.591V44.765C207.591 43.2514 207.254 42.1222 206.582 41.3774C205.909 40.6086 205.032 40.2241 203.951 40.2241C202.726 40.2241 201.729 40.6326 200.96 41.4495C200.191 42.2423 199.807 43.3115 199.807 44.6569V55H196.563Z" fill="#696F79"/>
<line x1="16.901" y1="34.8406" x2="16.901" y2="54.6618" stroke="#785DBA" stroke-width="1.80193"/>
<line x1="1" y1="34.099" x2="17.8" y2="34.099" stroke="#785DBA" stroke-width="1.80193"/>
<line x1="1.36292" y1="34.2035" x2="24.788" y2="10.7784" stroke="#785DBA" stroke-width="1.80193"/>
<line x1="24.1069" y1="10.6554" x2="43.9281" y2="23.2689" stroke="#785DBA" stroke-width="1.80193"/>
<line x1="24" y1="69.5" x2="217" y2="69.5" stroke="#696F79"/>
</svg>
