<svg width="187" height="34" viewBox="0 0 187 34" fill="none" xmlns="http://www.w3.org/2000/svg">
<path d="M12.1541 26.5406C9.87166 26.5406 7.8535 26 6.09962 24.9188C4.34573 23.8377 2.96425 22.312 1.95517 20.3419C0.970113 18.3718 0.477585 16.0533 0.477585 13.3865C0.477585 10.7196 0.970113 8.40112 1.95517 6.43101C2.96425 4.43687 4.34573 2.89922 6.09962 1.81806C7.8535 0.712875 9.87166 0.160282 12.1541 0.160282C14.2203 0.160282 16.0703 0.616771 17.7041 1.52975C19.3378 2.4187 20.6712 3.68006 21.7044 5.31381L18.7852 7.04366C18.0404 5.89043 17.1034 5.00147 15.9742 4.3768C14.845 3.75213 13.5716 3.4398 12.1541 3.4398C10.5204 3.4398 9.07881 3.84824 7.82947 4.66511C6.60416 5.48199 5.64313 6.63523 4.94638 8.12482C4.24963 9.5904 3.90126 11.3443 3.90126 13.3865C3.90126 15.4046 4.24963 17.1585 4.94638 18.6481C5.64313 20.1137 6.60416 21.2549 7.82947 22.0718C9.07881 22.8887 10.5204 23.2971 12.1541 23.2971C13.5716 23.2971 14.845 22.9848 15.9742 22.3601C17.1034 21.7354 18.0404 20.8465 18.7852 19.6932L21.7044 21.4231C20.6712 23.0328 19.3378 24.2942 17.7041 25.2071C16.0703 26.0961 14.2203 26.5406 12.1541 26.5406ZM25.5929 26V0.160282H28.8363V26H25.5929ZM34.2289 26V8.70144H37.4364V26H34.2289ZM35.8146 5.45796C35.214 5.45796 34.6974 5.25374 34.265 4.84531C33.8565 4.41284 33.6523 3.89629 33.6523 3.29564C33.6523 2.695 33.8565 2.19046 34.265 1.78202C34.6974 1.34956 35.214 1.13332 35.8146 1.13332C36.3912 1.13332 36.8838 1.34956 37.2922 1.78202C37.7247 2.19046 37.9409 2.695 37.9409 3.29564C37.9409 3.89629 37.7247 4.41284 37.2922 4.84531C36.8838 5.25374 36.3912 5.45796 35.8146 5.45796ZM50.1546 26.3964C48.5209 26.3964 47.0793 26.0481 45.83 25.3513C44.5806 24.6546 43.6076 23.6335 42.9109 22.288C42.2141 20.9185 41.8657 19.2728 41.8657 17.3507C41.8657 15.5007 42.2141 13.903 42.9109 12.5576C43.6076 11.1881 44.5566 10.131 45.7579 9.38618C46.9832 8.64138 48.3887 8.26898 49.9744 8.26898C51.5601 8.26898 52.9056 8.6654 54.0108 9.45826C55.14 10.2271 55.9929 11.2602 56.5695 12.5576C57.1701 13.855 57.4705 15.2725 57.4705 16.8101V17.6751H45.0371C45.0852 19.5971 45.5657 21.0627 46.4787 22.0718C47.4157 23.0568 48.653 23.5494 50.1907 23.5494C51.416 23.5494 52.4251 23.249 53.2179 22.6484C54.0348 22.0478 54.7195 21.1468 55.2721 19.9455L57.7227 21.5672C56.9059 23.249 55.8607 24.4744 54.5874 25.2432C53.338 26.012 51.8605 26.3964 50.1546 26.3964ZM45.2173 15.0803H54.2991C54.1069 13.8309 53.6263 12.8219 52.8575 12.053C52.0887 11.2842 51.1157 10.8998 49.9384 10.8998C48.6891 10.8998 47.6559 11.2602 46.8391 11.981C46.0222 12.6777 45.4816 13.7108 45.2173 15.0803ZM61.6315 26V8.70144H64.5507L64.7309 10.9358C65.2354 10.2151 65.9081 9.5904 66.749 9.06183C67.6139 8.53326 68.599 8.26898 69.7042 8.26898C71.5301 8.26898 73.0077 8.85761 74.1369 10.0349C75.2902 11.1881 75.8668 12.8699 75.8668 15.0803V26H72.6594V15.765C72.6594 14.2514 72.323 13.1222 71.6503 12.3774C70.9776 11.6086 70.1006 11.2241 69.0195 11.2241C67.7941 11.2241 66.7971 11.6326 66.0282 12.4495C65.2594 13.2423 64.875 14.3115 64.875 15.6569V26H61.6315ZM86.9574 26.3964C85.3237 26.3964 84.0863 26.0841 83.2454 25.4594C82.4045 24.8107 81.9841 23.5854 81.9841 21.7835V11.5125H78.4883V8.70144H81.9841V2.50279H85.1915V8.70144H90.2009V11.5125H85.1915V21.0987C85.1915 22.0357 85.3957 22.6724 85.8042 23.0088C86.2366 23.3211 86.8733 23.4773 87.7142 23.4773C88.1467 23.4773 88.5912 23.4172 89.0477 23.2971C89.5282 23.1529 89.9126 23.0088 90.2009 22.8646V25.8558C89.8165 26.024 89.3239 26.1562 88.7233 26.2523C88.1227 26.3484 87.534 26.3964 86.9574 26.3964ZM104.225 26V0.772938H107.504V22.9007H121.019V26H104.225ZM131.557 26.3964C129.971 26.3964 128.553 26.024 127.304 25.2792C126.079 24.5104 125.106 23.4413 124.385 22.0718C123.688 20.7023 123.34 19.1166 123.34 17.3147C123.34 15.5127 123.688 13.9391 124.385 12.5936C125.106 11.2241 126.079 10.167 127.304 9.42222C128.553 8.65339 129.971 8.26898 131.557 8.26898C133.142 8.26898 134.548 8.65339 135.773 9.42222C137.023 10.167 137.996 11.2241 138.692 12.5936C139.413 13.9391 139.773 15.5127 139.773 17.3147C139.773 19.1166 139.413 20.7023 138.692 22.0718C137.996 23.4413 137.023 24.5104 135.773 25.2792C134.548 26.024 133.142 26.3964 131.557 26.3964ZM131.557 23.4413C133.022 23.4413 134.212 22.9007 135.124 21.8195C136.061 20.7143 136.53 19.2127 136.53 17.3147C136.53 15.4166 136.061 13.927 135.124 12.8459C134.212 11.7647 133.022 11.2241 131.557 11.2241C130.091 11.2241 128.89 11.7647 127.953 12.8459C127.04 13.927 126.583 15.4166 126.583 17.3147C126.583 19.2127 127.04 20.7143 127.953 21.8195C128.89 22.9007 130.091 23.4413 131.557 23.4413ZM150.624 33.46C147.261 33.46 144.75 32.1386 143.092 29.4957L145.687 27.7299C146.768 29.5558 148.414 30.4688 150.624 30.4688C152.186 30.4688 153.363 29.9643 154.156 28.9552C154.949 27.9701 155.345 26.4325 155.345 24.3422V22.4322C154.769 23.1529 154.06 23.7176 153.219 24.126C152.402 24.5344 151.489 24.7386 150.48 24.7386C148.99 24.7386 147.657 24.4143 146.48 23.7656C145.302 23.1169 144.378 22.1799 143.705 20.9546C143.056 19.7052 142.732 18.2156 142.732 16.4858C142.732 14.7319 143.056 13.2543 143.705 12.053C144.378 10.8277 145.302 9.89072 146.48 9.24202C147.657 8.59333 148.99 8.26898 150.48 8.26898C151.537 8.26898 152.498 8.49722 153.363 8.95371C154.252 9.38618 154.997 9.99884 155.598 10.7917L155.706 8.70144H158.553V24.3422C158.553 27.3214 157.868 29.5798 156.499 31.1175C155.153 32.6792 153.195 33.46 150.624 33.46ZM150.696 21.8916C152.114 21.8916 153.279 21.3991 154.192 20.414C155.105 19.429 155.561 18.1195 155.561 16.4858C155.561 14.852 155.105 13.5546 154.192 12.5936C153.279 11.6326 152.114 11.1521 150.696 11.1521C149.303 11.1521 148.162 11.6326 147.273 12.5936C146.408 13.5546 145.975 14.852 145.975 16.4858C145.975 18.1195 146.408 19.429 147.273 20.414C148.162 21.3991 149.303 21.8916 150.696 21.8916ZM163.989 26V8.70144H167.197V26H163.989ZM165.575 5.45796C164.974 5.45796 164.458 5.25374 164.025 4.84531C163.617 4.41284 163.413 3.89629 163.413 3.29564C163.413 2.695 163.617 2.19046 164.025 1.78202C164.458 1.34956 164.974 1.13332 165.575 1.13332C166.152 1.13332 166.644 1.34956 167.052 1.78202C167.485 2.19046 167.701 2.695 167.701 3.29564C167.701 3.89629 167.485 4.41284 167.052 4.84531C166.644 5.25374 166.152 5.45796 165.575 5.45796ZM172.563 26V8.70144H175.482L175.662 10.9358C176.167 10.2151 176.84 9.5904 177.681 9.06183C178.545 8.53326 179.531 8.26898 180.636 8.26898C182.462 8.26898 183.939 8.85761 185.068 10.0349C186.222 11.1881 186.798 12.8699 186.798 15.0803V26H183.591V15.765C183.591 14.2514 183.254 13.1222 182.582 12.3774C181.909 11.6086 181.032 11.2241 179.951 11.2241C178.726 11.2241 177.729 11.6326 176.96 12.4495C176.191 13.2423 175.807 14.3115 175.807 15.6569V26H172.563Z" fill="#696F79"/>
</svg>
