<svg width="50" height="30" viewBox="0 0 50 30" fill="none" xmlns="http://www.w3.org/2000/svg">
<path fill-rule="evenodd" clip-rule="evenodd" d="M45.8334 0.499992C46.6574 0.500168 47.4628 0.744635 48.1478 1.20249C48.8329 1.66034 49.3668 2.31102 49.6821 3.07227C49.9974 3.83352 50.0799 4.67115 49.9192 5.47929C49.7585 6.28743 49.3618 7.02978 48.7793 7.61249L27.9459 28.4458C27.1646 29.227 26.1049 29.6658 25.0001 29.6658C23.8952 29.6658 22.8356 29.227 22.0543 28.4458L1.22092 7.61249C0.638384 7.02978 0.241689 6.28743 0.0809908 5.47929C-0.0797073 4.67115 0.00280624 3.83352 0.318098 3.07227C0.63339 2.31102 1.1673 1.66034 1.85235 1.20249C2.53739 0.744635 3.3428 0.500168 4.16676 0.499992H45.8334Z" fill="black"/>
</svg>
