<svg width="25" height="24" viewBox="0 0 25 24" fill="none" xmlns="http://www.w3.org/2000/svg">
<path d="M15.8286 2.5V4C15.8286 5.414 15.8286 6.121 16.2686 6.56C16.7066 7 17.4136 7 18.8286 7H20.3286" stroke="#785DBA" stroke-width="1.5" stroke-linecap="round" stroke-linejoin="round"/>
<path d="M8.82861 11H16.8286M8.82861 14H16.8286M8.82861 17H12.9986M4.82861 16V8C4.82861 5.172 4.82861 3.757 5.70761 2.879C6.58561 2 8.00061 2 10.8286 2H15.0006C15.4086 2 15.6136 2 15.7976 2.076C15.9806 2.152 16.1256 2.296 16.4146 2.586L20.2426 6.414C20.5326 6.704 20.6766 6.848 20.7526 7.032C20.8286 7.215 20.8286 7.42 20.8286 7.828V16C20.8286 18.828 20.8286 20.243 19.9496 21.121C19.0716 22 17.6566 22 14.8286 22H10.8286C8.00061 22 6.58561 22 5.70761 21.121C4.82861 20.243 4.82861 18.828 4.82861 16Z" stroke="#785DBA" stroke-width="1.5" stroke-linecap="round" stroke-linejoin="round"/>
</svg>
