<svg width="25" height="24" viewBox="0 0 25 24" fill="none" xmlns="http://www.w3.org/2000/svg">
<path d="M12.0786 18C12.0786 18.1989 12.1576 18.3897 12.2983 18.5303C12.4389 18.671 12.6297 18.75 12.8286 18.75C13.0275 18.75 13.2183 18.671 13.3589 18.5303C13.4996 18.3897 13.5786 18.1989 13.5786 18V15C13.5786 14.8011 13.4996 14.6103 13.3589 14.4697C13.2183 14.329 13.0275 14.25 12.8286 14.25C12.6297 14.25 12.4389 14.329 12.2983 14.4697C12.1576 14.6103 12.0786 14.8011 12.0786 15V18Z" fill="#785DBA"/>
<path fill-rule="evenodd" clip-rule="evenodd" d="M12.8286 1.25C12.1206 1.25 11.4776 1.453 10.7786 1.792C10.1046 2.12 9.32461 2.604 8.35161 3.208L6.28461 4.491C5.36461 5.063 4.62561 5.521 4.05761 5.956C3.46861 6.406 3.01661 6.866 2.68961 7.463C2.36361 8.058 2.21761 8.692 2.14661 9.441C2.07861 10.166 2.07861 11.054 2.07861 12.167V13.78C2.07861 15.684 2.07861 17.187 2.23161 18.362C2.38761 19.567 2.71761 20.54 3.46161 21.309C4.20861 22.082 5.15861 22.428 6.33661 22.591C7.47661 22.75 8.93461 22.75 10.7706 22.75H14.8866C16.7226 22.75 18.1806 22.75 19.3206 22.591C20.4976 22.428 21.4486 22.082 22.1966 21.309C22.9396 20.54 23.2696 19.567 23.4266 18.362C23.5786 17.187 23.5786 15.684 23.5786 13.78V12.167C23.5786 11.054 23.5786 10.167 23.5106 9.441C23.4406 8.691 23.2936 8.058 22.9676 7.463C22.6406 6.866 22.1876 6.407 21.5996 5.956C21.0316 5.52 20.2936 5.063 19.3726 4.491L17.3056 3.208C16.3326 2.604 15.5526 2.12 14.8776 1.792C14.1806 1.452 13.5376 1.25 12.8286 1.25ZM9.10861 4.504C10.1236 3.874 10.8386 3.432 11.4356 3.141C12.0166 2.858 12.4286 2.75 12.8286 2.75C13.2286 2.75 13.6406 2.858 14.2216 3.141C14.8196 3.431 15.5336 3.874 16.5486 4.504L18.5486 5.745C19.5096 6.342 20.1846 6.761 20.6886 7.147C21.1776 7.522 21.4586 7.831 21.6516 8.183C21.8446 8.536 21.9576 8.949 22.0166 9.581C22.0776 10.229 22.0786 11.046 22.0786 12.204V13.725C22.0786 15.695 22.0766 17.101 21.9386 18.168C21.8026 19.216 21.5456 19.824 21.1186 20.267C20.6936 20.706 20.1156 20.967 19.1146 21.106C18.0886 21.248 16.7356 21.25 14.8286 21.25H10.8286C8.92061 21.25 7.56861 21.248 6.54261 21.106C5.54161 20.966 4.96361 20.706 4.53961 20.266C4.11161 19.824 3.85461 19.216 3.71961 18.168C3.57961 17.101 3.57861 15.696 3.57861 13.725V12.204C3.57861 11.046 3.57861 10.229 3.64061 9.581C3.69961 8.949 3.81261 8.536 4.00561 8.183C4.19861 7.831 4.47961 7.522 4.96961 7.147C5.47261 6.761 6.14761 6.342 7.10861 5.745L9.10861 4.504Z" fill="#785DBA"/>
</svg>
