<svg width="149" height="54" viewBox="0 0 149 54" fill="none" xmlns="http://www.w3.org/2000/svg">
<path d="M2.40007 53.4684C1.71048 53.4684 1.14158 53.2443 0.693349 52.7961C0.24512 52.3478 0.0210054 51.7789 0.0210054 51.0893V27.1436C0.0554847 24.4542 0.693349 22.0234 1.9346 19.8512C3.21033 17.679 4.91705 15.9723 7.05476 14.7311C9.19246 13.4898 11.606 12.8692 14.2954 12.8692C17.0192 12.8692 19.45 13.507 21.5877 14.7828C23.7599 16.024 25.4666 17.7307 26.7079 19.9029C27.9836 22.0406 28.6215 24.4887 28.6215 27.247C28.6215 29.9708 28.0181 32.4189 26.8113 34.5911C25.639 36.7632 24.0357 38.47 22.0015 39.7112C19.9672 40.9525 17.6743 41.5731 15.1229 41.5731C12.9507 41.5731 10.9854 41.1249 9.22694 40.2284C7.46851 39.3319 5.9859 38.1252 4.77913 36.6081V51.0893C4.77913 51.7789 4.55502 52.3478 4.10679 52.7961C3.69304 53.2443 3.12413 53.4684 2.40007 53.4684ZM14.2954 37.3321C16.1228 37.3321 17.7605 36.9012 19.2087 36.0392C20.6913 35.1427 21.8463 33.936 22.6738 32.4189C23.5358 30.8673 23.9668 29.1433 23.9668 27.247C23.9668 25.3162 23.5358 23.5922 22.6738 22.0751C21.8463 20.5236 20.6913 19.3168 19.2087 18.4548C17.7605 17.5583 16.1228 17.1101 14.2954 17.1101C12.468 17.1101 10.813 17.5583 9.33038 18.4548C7.88226 19.3513 6.74444 20.558 5.91694 22.0751C5.08944 23.5922 4.67569 25.3162 4.67569 27.247C4.67569 29.1433 5.08944 30.8673 5.91694 32.4189C6.74444 33.936 7.88226 35.1427 9.33038 36.0392C10.813 36.9012 12.468 37.3321 14.2954 37.3321ZM43.0519 41.5731C40.466 41.5731 38.1559 40.9525 36.1216 39.7112C34.0873 38.47 32.484 36.7632 31.3118 34.5911C30.1395 32.4189 29.5533 29.9708 29.5533 27.247C29.5533 24.4887 30.1739 22.0406 31.4152 19.9029C32.6909 17.7307 34.3976 16.024 36.5354 14.7828C38.7075 13.507 41.1383 12.8692 43.8277 12.8692C46.5515 12.8692 48.9823 13.507 51.12 14.7828C53.2577 16.024 54.9472 17.7307 56.1885 19.9029C57.4642 22.0751 58.1193 24.5231 58.1538 27.247L56.2919 27.7125C56.2919 30.3329 55.7058 32.6947 54.5335 34.7979C53.3612 36.9012 51.7751 38.5562 49.7754 39.7629C47.81 40.9697 45.5689 41.5731 43.0519 41.5731ZM43.8277 37.3321C45.6896 37.3321 47.3446 36.9012 48.7927 36.0392C50.2408 35.1427 51.3786 33.936 52.2061 32.4189C53.0681 30.8673 53.4991 29.1433 53.4991 27.247C53.4991 25.3162 53.0681 23.5922 52.2061 22.0751C51.3786 20.5236 50.2408 19.3168 48.7927 18.4548C47.3446 17.5583 45.6896 17.1101 43.8277 17.1101C42.0348 17.1101 40.397 17.5583 38.9144 18.4548C37.4318 19.3168 36.2595 20.5236 35.3975 22.0751C34.57 23.5922 34.1563 25.3162 34.1563 27.247C34.1563 29.1433 34.57 30.8673 35.3975 32.4189C36.2595 33.936 37.4318 35.1427 38.9144 36.0392C40.397 36.9012 42.0348 37.3321 43.8277 37.3321ZM55.723 41.4179C55.0334 41.4179 54.4645 41.1938 54.0163 40.7456C53.5681 40.2974 53.3439 39.7285 53.3439 39.0389V30.7639L54.3266 25.7989L58.1538 27.247V39.0389C58.1538 39.7285 57.9124 40.2974 57.4297 40.7456C56.9815 41.1938 56.4126 41.4179 55.723 41.4179ZM84.5159 41.4179C83.8263 41.4179 83.2402 41.1938 82.7575 40.7456C82.3092 40.2629 82.0851 39.694 82.0851 39.0389V26.0057C82.0851 23.9715 81.7059 22.3165 80.9473 21.0407C80.1888 19.7305 79.1716 18.7651 77.8959 18.1445C76.6202 17.4894 75.1548 17.1618 73.4998 17.1618C71.9482 17.1618 70.5518 17.4721 69.3106 18.0928C68.0693 18.7134 67.0694 19.5409 66.3109 20.5753C65.5868 21.6096 65.2248 22.7992 65.2248 24.1439H62.1217C62.1562 21.9717 62.7078 20.0408 63.7767 18.3514C64.8455 16.6274 66.2937 15.2827 68.1211 14.3173C69.9485 13.3174 72 12.8175 74.2756 12.8175C76.6891 12.8175 78.8441 13.3346 80.7404 14.369C82.6368 15.3689 84.1366 16.8515 85.24 18.8168C86.3433 20.7821 86.895 23.1784 86.895 26.0057V39.0389C86.895 39.694 86.6536 40.2629 86.1709 40.7456C85.7227 41.1938 85.171 41.4179 84.5159 41.4179ZM62.8457 41.4179C62.1562 41.4179 61.5873 41.1938 61.139 40.7456C60.6908 40.2974 60.4667 39.7285 60.4667 39.0389V15.4551C60.4667 14.7311 60.6908 14.1621 61.139 13.7484C61.5873 13.3002 62.1562 13.0761 62.8457 13.0761C63.5698 13.0761 64.1387 13.3002 64.5525 13.7484C65.0007 14.1621 65.2248 14.7311 65.2248 15.4551V39.0389C65.2248 39.7285 65.0007 40.2974 64.5525 40.7456C64.1387 41.1938 63.5698 41.4179 62.8457 41.4179ZM102.96 41.5731C100.271 41.5731 97.84 40.9525 95.6679 39.7112C93.5301 38.4355 91.8234 36.7115 90.5477 34.5393C89.3065 32.3671 88.6858 29.9191 88.6858 27.1953C88.6858 24.4714 89.272 22.0406 90.4443 19.9029C91.6166 17.7307 93.2198 16.024 95.2541 14.7828C97.2884 13.507 99.5985 12.8692 102.184 12.8692C104.322 12.8692 106.27 13.3174 108.029 14.2139C109.822 15.1103 111.304 16.3171 112.476 17.8342V3.35293C112.476 2.62887 112.701 2.05996 113.149 1.64621C113.597 1.19798 114.166 0.973866 114.856 0.973866C115.58 0.973866 116.166 1.19798 116.614 1.64621C117.062 2.05996 117.286 2.62887 117.286 3.35293V27.2987C117.252 29.9881 116.597 32.4189 115.321 34.5911C114.08 36.7632 112.373 38.47 110.201 39.7112C108.063 40.9525 105.65 41.5731 102.96 41.5731ZM102.96 37.3321C104.822 37.3321 106.477 36.9012 107.925 36.0392C109.373 35.1427 110.511 33.936 111.339 32.4189C112.201 30.8673 112.632 29.1261 112.632 27.1953C112.632 25.2644 112.201 23.5405 111.339 22.0234C110.511 20.5063 109.373 19.3168 107.925 18.4548C106.477 17.5583 104.822 17.1101 102.96 17.1101C101.167 17.1101 99.5295 17.5583 98.0469 18.4548C96.5643 19.3168 95.392 20.5063 94.53 22.0234C93.7025 23.5405 93.2888 25.2644 93.2888 27.1953C93.2888 29.1261 93.7025 30.8673 94.53 32.4189C95.392 33.936 96.5643 35.1427 98.0469 36.0392C99.5295 36.9012 101.167 37.3321 102.96 37.3321ZM133.165 41.5731C130.579 41.5731 128.269 40.9525 126.235 39.7112C124.2 38.47 122.597 36.7632 121.425 34.5911C120.252 32.4189 119.666 29.9708 119.666 27.247C119.666 24.4887 120.287 22.0406 121.528 19.9029C122.804 17.7307 124.511 16.024 126.648 14.7828C128.82 13.507 131.251 12.8692 133.941 12.8692C136.664 12.8692 139.095 13.507 141.233 14.7828C143.371 16.024 145.06 17.7307 146.301 19.9029C147.577 22.0751 148.232 24.5231 148.267 27.247L146.405 27.7125C146.405 30.3329 145.819 32.6947 144.646 34.7979C143.474 36.9012 141.888 38.5562 139.888 39.7629C137.923 40.9697 135.682 41.5731 133.165 41.5731ZM133.941 37.3321C135.803 37.3321 137.458 36.9012 138.906 36.0392C140.354 35.1427 141.492 33.936 142.319 32.4189C143.181 30.8673 143.612 29.1433 143.612 27.247C143.612 25.3162 143.181 23.5922 142.319 22.0751C141.492 20.5236 140.354 19.3168 138.906 18.4548C137.458 17.5583 135.803 17.1101 133.941 17.1101C132.148 17.1101 130.51 17.5583 129.027 18.4548C127.545 19.3168 126.372 20.5236 125.51 22.0751C124.683 23.5922 124.269 25.3162 124.269 27.247C124.269 29.1433 124.683 30.8673 125.51 32.4189C126.372 33.936 127.545 35.1427 129.027 36.0392C130.51 36.9012 132.148 37.3321 133.941 37.3321ZM145.836 41.4179C145.146 41.4179 144.577 41.1938 144.129 40.7456C143.681 40.2974 143.457 39.7285 143.457 39.0389V30.7639L144.44 25.7989L148.267 27.247V39.0389C148.267 39.7285 148.025 40.2974 147.543 40.7456C147.094 41.1938 146.526 41.4179 145.836 41.4179Z" fill="white"/>
</svg>
