<svg width="24" height="23" viewBox="0 0 24 23" fill="none" xmlns="http://www.w3.org/2000/svg">
<g clip-path="url(#clip0_3079_1129)">
<path d="M14.1367 13.2407C13.4779 12.6792 12.7479 12.2487 11.9468 11.9492C11.1457 11.6497 10.3146 11.5 9.45361 11.5C8.79476 11.5 8.15837 11.5861 7.54443 11.7583C6.9305 11.9305 6.35775 12.1701 5.82617 12.4771C5.2946 12.784 4.81169 13.1584 4.37744 13.6001C3.9432 14.0418 3.56885 14.5285 3.25439 15.0601C2.93994 15.5916 2.69661 16.1644 2.52441 16.7783C2.35221 17.3923 2.26611 18.0286 2.26611 18.6875H0.828613C0.828613 17.7891 0.959635 16.9243 1.22168 16.0933C1.48372 15.2622 1.86182 14.4948 2.35596 13.791C2.8501 13.0872 3.43408 12.4621 4.10791 11.9155C4.78174 11.369 5.54541 10.9385 6.39893 10.624C5.5529 10.07 4.89404 9.3737 4.42236 8.53516C3.95068 7.69661 3.7111 6.76823 3.70361 5.75C3.70361 4.95638 3.85335 4.21143 4.15283 3.51514C4.45231 2.81885 4.86035 2.20866 5.37695 1.68457C5.89355 1.16048 6.50374 0.748698 7.20752 0.449219C7.9113 0.14974 8.65999 0 9.45361 0C10.2472 0 10.9922 0.14974 11.6885 0.449219C12.3848 0.748698 12.995 1.15674 13.519 1.67334C14.0431 2.18994 14.4549 2.80013 14.7544 3.50391C15.0539 4.20768 15.2036 4.95638 15.2036 5.75C15.2036 6.24414 15.1437 6.72705 15.0239 7.19873C14.9041 7.67041 14.7244 8.11589 14.4849 8.53516C14.2453 8.95443 13.9645 9.34001 13.6426 9.69189C13.3206 10.0438 12.9425 10.3545 12.5083 10.624C12.995 10.8112 13.4591 11.0396 13.9009 11.3091C14.3426 11.5786 14.7581 11.8818 15.1475 12.2188L14.1367 13.2407ZM5.14111 5.75C5.14111 6.34896 5.25342 6.90674 5.47803 7.42334C5.70264 7.93994 6.0096 8.39665 6.39893 8.79346C6.78825 9.19027 7.24495 9.50098 7.76904 9.72559C8.29313 9.9502 8.85466 10.0625 9.45361 10.0625C10.0451 10.0625 10.6029 9.9502 11.127 9.72559C11.651 9.50098 12.1077 9.19401 12.4971 8.80469C12.8864 8.41536 13.1971 7.95866 13.4292 7.43457C13.6613 6.91048 13.7736 6.34896 13.7661 5.75C13.7661 5.15853 13.6538 4.60075 13.4292 4.07666C13.2046 3.55257 12.8976 3.09587 12.5083 2.70654C12.119 2.31722 11.6585 2.00651 11.127 1.77441C10.5954 1.54232 10.0376 1.43001 9.45361 1.4375C8.85466 1.4375 8.29688 1.5498 7.78027 1.77441C7.26367 1.99902 6.80697 2.30599 6.41016 2.69531C6.01335 3.08464 5.70264 3.54508 5.47803 4.07666C5.25342 4.60824 5.14111 5.16602 5.14111 5.75ZM20.2349 8.625C20.729 8.625 21.1932 8.71859 21.6274 8.90576C22.0617 9.09294 22.4398 9.35124 22.7617 9.68066C23.0837 10.0101 23.342 10.3919 23.5366 10.8262C23.7313 11.2604 23.8286 11.7246 23.8286 12.2188C23.8286 12.7129 23.735 13.1771 23.5479 13.6113C23.3607 14.0456 23.1024 14.4274 22.7729 14.7568C22.4435 15.0863 22.0617 15.3446 21.6274 15.5317C21.1932 15.7189 20.729 15.8125 20.2349 15.8125C20.0627 15.8125 19.8942 15.8013 19.7295 15.7788L13.1372 22.3711C12.9351 22.5732 12.703 22.7267 12.4409 22.8315C12.1789 22.9364 11.9019 22.9925 11.6099 23C11.3104 23 11.0296 22.9438 10.7676 22.8315C10.5055 22.7192 10.2772 22.5658 10.0825 22.3711C9.88786 22.1764 9.73438 21.9481 9.62207 21.686C9.50977 21.424 9.45361 21.1432 9.45361 20.8438C9.45361 20.5592 9.50602 20.286 9.61084 20.0239C9.71566 19.7619 9.87288 19.526 10.0825 19.3164L16.6748 12.7241C16.6523 12.5594 16.6411 12.391 16.6411 12.2188C16.6411 11.7246 16.7347 11.2604 16.9219 10.8262C17.109 10.3919 17.3636 10.0138 17.6855 9.69189C18.0075 9.36995 18.3893 9.11165 18.8311 8.91699C19.2728 8.72233 19.7407 8.625 20.2349 8.625ZM20.2349 14.375C20.5343 14.375 20.8151 14.3188 21.0771 14.2065C21.3392 14.0942 21.5675 13.9408 21.7622 13.7461C21.9569 13.5514 22.1104 13.3231 22.2227 13.061C22.335 12.799 22.3911 12.5182 22.3911 12.2188C22.3911 11.9118 22.32 11.6048 22.1777 11.2979L20.5381 12.9375H19.5161V11.9155L21.1558 10.2759C20.8488 10.1336 20.5418 10.0625 20.2349 10.0625C19.9354 10.0625 19.6546 10.1187 19.3926 10.231C19.1305 10.3433 18.9022 10.4967 18.7075 10.6914C18.5129 10.8861 18.3594 11.1144 18.2471 11.3765C18.1348 11.6385 18.0786 11.9193 18.0786 12.2188C18.0786 12.5257 18.1497 12.8327 18.292 13.1396L11.1045 20.3384C10.9622 20.4806 10.8911 20.6491 10.8911 20.8438C10.8911 21.0384 10.9622 21.2069 11.1045 21.3491C11.2467 21.4914 11.4152 21.5625 11.6099 21.5625C11.8045 21.5625 11.973 21.4914 12.1152 21.3491L19.314 14.1616C19.6209 14.3039 19.9279 14.375 20.2349 14.375Z" fill="#785DBA"/>
</g>
<defs>
<clipPath id="clip0_3079_1129">
<rect width="23" height="23" fill="white" transform="translate(0.828613)"/>
</clipPath>
</defs>
</svg>
