<svg width="682" height="887" viewBox="0 0 682 887" fill="none" xmlns="http://www.w3.org/2000/svg">
<g filter="url(#filter0_d_2433_1598)">
<path d="M575.268 40C593.922 40 603.249 39.9996 610.374 43.6299C616.641 46.8232 621.736 51.9193 624.93 58.1865C628.56 65.3115 628.561 74.6388 628.561 93.293V819.403H620.233C620.233 811.126 613.523 804.415 605.245 804.415C596.967 804.415 590.256 811.125 590.256 819.403H576.934C576.933 811.125 570.222 804.415 561.944 804.415C553.667 804.415 546.956 811.126 546.956 819.403H533.633C533.633 811.126 526.922 804.415 518.645 804.415C510.367 804.415 503.656 811.125 503.656 819.403H490.333C490.333 811.125 483.622 804.415 475.344 804.415C467.066 804.415 460.356 811.126 460.355 819.403H447.032C447.032 811.125 440.322 804.415 432.044 804.415C423.766 804.415 417.056 811.126 417.056 819.403H403.732C403.732 811.126 397.022 804.415 388.744 804.415C380.466 804.415 373.755 811.125 373.755 819.403H360.432C360.432 811.125 353.721 804.415 345.443 804.415C337.166 804.415 330.455 811.126 330.455 819.403H317.132C317.132 811.126 310.421 804.415 302.144 804.415C293.866 804.415 287.155 811.125 287.155 819.403H273.832C273.832 811.125 267.121 804.415 258.843 804.415C250.565 804.415 243.855 811.126 243.854 819.403H230.531C230.531 811.125 223.821 804.415 215.543 804.415C207.265 804.415 200.555 811.125 200.555 819.403H187.231C187.231 811.126 180.521 804.415 172.243 804.415C163.965 804.415 157.254 811.125 157.254 819.403H143.931C143.931 811.125 137.22 804.415 128.942 804.415C120.665 804.415 113.954 811.126 113.954 819.403H100.631C100.631 811.126 93.9204 804.415 85.6426 804.415C77.3647 804.415 70.6544 811.125 70.6543 819.403H54V93.293C54 74.6391 53.9997 65.3114 57.6299 58.1865C60.8232 51.9193 65.9193 46.8232 72.1865 43.6299C79.3114 39.9997 88.6391 40 107.293 40H575.268Z" fill="#25282E"/>
</g>
<defs>
<filter id="filter0_d_2433_1598" x="0.707447" y="0.0305853" width="681.146" height="885.987" filterUnits="userSpaceOnUse" color-interpolation-filters="sRGB">
<feFlood flood-opacity="0" result="BackgroundImageFix"/>
<feColorMatrix in="SourceAlpha" type="matrix" values="0 0 0 0 0 0 0 0 0 0 0 0 0 0 0 0 0 0 127 0" result="hardAlpha"/>
<feOffset dy="13.3231"/>
<feGaussianBlur stdDeviation="26.6463"/>
<feComposite in2="hardAlpha" operator="out"/>
<feColorMatrix type="matrix" values="0 0 0 0 0 0 0 0 0 0 0 0 0 0 0 0 0 0 0.16 0"/>
<feBlend mode="normal" in2="BackgroundImageFix" result="effect1_dropShadow_2433_1598"/>
<feBlend mode="normal" in="SourceGraphic" in2="effect1_dropShadow_2433_1598" result="shape"/>
</filter>
</defs>
</svg>
