<svg width="65" height="65" viewBox="0 0 65 65" fill="none" xmlns="http://www.w3.org/2000/svg">
<rect x="0.5" y="0.5" width="64" height="64" rx="32" fill="#61C478"/>
<path d="M28.4995 38.0572L23.8729 33.4305C23.6236 33.1812 23.2854 33.0411 22.9329 33.0411C22.5803 33.0411 22.2422 33.1812 21.9929 33.4305C21.7436 33.6798 21.6035 34.0179 21.6035 34.3705C21.6035 34.5451 21.6379 34.7179 21.7047 34.8792C21.7715 35.0405 21.8694 35.1871 21.9929 35.3105L27.5662 40.8838C28.0862 41.4038 28.9262 41.4038 29.4462 40.8838L43.5529 26.7772C43.8022 26.5279 43.9422 26.1897 43.9422 25.8372C43.9422 25.4846 43.8022 25.1465 43.5529 24.8972C43.3036 24.6479 42.9654 24.5078 42.6129 24.5078C42.2603 24.5078 41.9222 24.6479 41.6729 24.8972L28.4995 38.0572Z" fill="white"/>
</svg>
