<svg width="28" height="28" viewBox="0 0 28 28" fill="none" xmlns="http://www.w3.org/2000/svg">
<path d="M23.625 5.25H4.375C4.14294 5.25 3.92038 5.34219 3.75628 5.50628C3.59219 5.67038 3.5 5.89294 3.5 6.125V21.875C3.5 22.1071 3.59219 22.3296 3.75628 22.4937C3.92038 22.6578 4.14294 22.75 4.375 22.75H23.625C23.8571 22.75 24.0796 22.6578 24.2437 22.4937C24.4078 22.3296 24.5 22.1071 24.5 21.875V6.125C24.5 5.89294 24.4078 5.67038 24.2437 5.50628C24.0796 5.34219 23.8571 5.25 23.625 5.25ZM10.5 15.75C9.98082 15.75 9.47331 15.596 9.04163 15.3076C8.60995 15.0192 8.2735 14.6092 8.07482 14.1295C7.87614 13.6499 7.82415 13.1221 7.92544 12.6129C8.02672 12.1037 8.27673 11.636 8.64384 11.2688C9.01096 10.9017 9.47869 10.6517 9.98789 10.5504C10.4971 10.4492 11.0249 10.5011 11.5045 10.6998C11.9842 10.8985 12.3942 11.2349 12.6826 11.6666C12.971 12.0983 13.125 12.6058 13.125 13.125C13.125 13.8212 12.8484 14.4889 12.3562 14.9812C11.8639 15.4734 11.1962 15.75 10.5 15.75Z" fill="black" fill-opacity="0.04"/>
<path d="M21.5833 12.5415C21.5833 12.7736 21.4911 12.9961 21.3271 13.1602C21.163 13.3243 20.9404 13.4165 20.7083 13.4165H16.3333C16.1013 13.4165 15.8787 13.3243 15.7146 13.1602C15.5505 12.9961 15.4583 12.7736 15.4583 12.5415C15.4583 12.3094 15.5505 12.0869 15.7146 11.9228C15.8787 11.7587 16.1013 11.6665 16.3333 11.6665H20.7083C20.9404 11.6665 21.163 11.7587 21.3271 11.9228C21.4911 12.0869 21.5833 12.3094 21.5833 12.5415ZM20.7083 15.1665H16.3333C16.1013 15.1665 15.8787 15.2587 15.7146 15.4228C15.5505 15.5869 15.4583 15.8094 15.4583 16.0415C15.4583 16.2736 15.5505 16.4961 15.7146 16.6602C15.8787 16.8243 16.1013 16.9165 16.3333 16.9165H20.7083C20.9404 16.9165 21.163 16.8243 21.3271 16.6602C21.4911 16.4961 21.5833 16.2736 21.5833 16.0415C21.5833 15.8094 21.4911 15.5869 21.3271 15.4228C21.163 15.2587 20.9404 15.1665 20.7083 15.1665ZM25.0833 6.4165V22.1665C25.0833 22.6306 24.899 23.0758 24.5708 23.4039C24.2426 23.7321 23.7975 23.9165 23.3333 23.9165H4.08334C3.61921 23.9165 3.17409 23.7321 2.8459 23.4039C2.51771 23.0758 2.33334 22.6306 2.33334 22.1665V6.4165C2.33334 5.95238 2.51771 5.50726 2.8459 5.17907C3.17409 4.85088 3.61921 4.6665 4.08334 4.6665H23.3333C23.7975 4.6665 24.2426 4.85088 24.5708 5.17907C24.899 5.50726 25.0833 5.95238 25.0833 6.4165ZM23.3333 22.1665V6.4165H4.08334V22.1665H23.3333ZM14.5549 18.4478C14.6129 18.6726 14.5792 18.9112 14.4613 19.1112C14.3434 19.3112 14.1508 19.4561 13.926 19.5142C13.7012 19.5722 13.4625 19.5385 13.2625 19.4206C13.0625 19.3026 12.9176 19.1101 12.8596 18.8853C12.5719 17.7631 11.4311 16.9165 10.2072 16.9165C8.98334 16.9165 7.84365 17.7631 7.5549 18.8853C7.49688 19.1101 7.35194 19.3026 7.15195 19.4206C6.95196 19.5385 6.7133 19.5722 6.48849 19.5142C6.26368 19.4561 6.07112 19.3112 5.95318 19.1112C5.83524 18.9112 5.80157 18.6726 5.85959 18.4478C6.14352 17.3909 6.81471 16.4796 7.73974 15.8949C7.24818 15.4063 6.91276 14.7827 6.77603 14.1032C6.63929 13.4237 6.70738 12.7189 6.97167 12.0781C7.23597 11.4374 7.68456 10.8895 8.26058 10.504C8.83661 10.1185 9.51412 9.91272 10.2072 9.91272C10.9004 9.91272 11.5779 10.1185 12.1539 10.504C12.7299 10.8895 13.1785 11.4374 13.4428 12.0781C13.7071 12.7189 13.7752 13.4237 13.6385 14.1032C13.5017 14.7827 13.1663 15.4063 12.6747 15.8949C13.6008 16.4788 14.2726 17.3904 14.556 18.4478H14.5549ZM10.2083 15.1665C10.5545 15.1665 10.8928 15.0639 11.1806 14.8716C11.4684 14.6793 11.6927 14.406 11.8251 14.0862C11.9576 13.7664 11.9922 13.4146 11.9247 13.0751C11.8572 12.7356 11.6905 12.4238 11.4458 12.1791C11.201 11.9343 10.8892 11.7677 10.5497 11.7001C10.2103 11.6326 9.85841 11.6673 9.53864 11.7997C9.21887 11.9322 8.94556 12.1565 8.75326 12.4443C8.56097 12.732 8.45834 13.0704 8.45834 13.4165C8.45834 13.8806 8.64271 14.3258 8.9709 14.6539C9.29909 14.9821 9.74421 15.1665 10.2083 15.1665Z" fill="black"/>
</svg>
