<svg width="27" height="26" viewBox="0 0 27 26" fill="none" xmlns="http://www.w3.org/2000/svg">
<g clip-path="url(#clip0_3079_1139)">
<path d="M26.4468 13.4306L24.0093 15.8681C23.895 15.9822 23.7402 16.0463 23.5787 16.0463C23.4172 16.0463 23.2623 15.9822 23.148 15.8681L20.7105 13.4306C20.6507 13.3748 20.6027 13.3075 20.5694 13.2328C20.536 13.158 20.5181 13.0773 20.5167 12.9955C20.5152 12.9137 20.5303 12.8324 20.5609 12.7566C20.5916 12.6807 20.6372 12.6117 20.6951 12.5539C20.7529 12.496 20.8219 12.4504 20.8978 12.4198C20.9736 12.3891 21.0549 12.3741 21.1367 12.3755C21.2185 12.3769 21.2992 12.3948 21.374 12.4282C21.4487 12.4615 21.516 12.5095 21.5718 12.5694L22.9693 13.9658V13C22.9702 11.0646 22.3567 9.17888 21.2173 7.61446C20.0779 6.05004 18.4713 4.88766 16.6289 4.29474C14.7866 3.70183 12.8036 3.70899 10.9657 4.31519C9.12766 4.92139 7.52951 6.09534 6.40141 7.66794C6.35583 7.7356 6.29713 7.79342 6.22878 7.83797C6.16044 7.88252 6.08385 7.91289 6.00355 7.92729C5.92325 7.94169 5.84088 7.93981 5.76132 7.92178C5.68176 7.90375 5.60663 7.86993 5.54038 7.82232C5.47413 7.77471 5.41812 7.71428 5.37567 7.64462C5.33321 7.57496 5.30517 7.49748 5.29322 7.41678C5.28126 7.33608 5.28563 7.25381 5.30607 7.17483C5.3265 7.09585 5.36259 7.02178 5.41219 6.95701C6.69086 5.17518 8.50203 3.84514 10.5849 3.15841C12.6677 2.47168 14.9148 2.46369 17.0025 3.13561C19.0902 3.80753 20.9107 5.12467 22.202 6.89736C23.4933 8.67006 24.1887 10.8068 24.188 13V13.9658L25.5855 12.5694C25.6413 12.5095 25.7086 12.4615 25.7834 12.4282C25.8581 12.3948 25.9388 12.3769 26.0206 12.3755C26.1024 12.3741 26.1837 12.3891 26.2596 12.4198C26.3355 12.4504 26.4044 12.496 26.4623 12.5539C26.5201 12.6117 26.5657 12.6807 26.5964 12.7566C26.627 12.8324 26.6421 12.9137 26.6407 12.9955C26.6392 13.0773 26.6213 13.158 26.588 13.2328C26.5547 13.3075 26.5067 13.3748 26.4468 13.4306ZM22.2431 19.0429C20.9642 20.8239 19.1531 22.1531 17.0707 22.8393C14.9882 23.5255 12.7417 23.5332 10.6545 22.8614C8.5674 22.1896 6.74724 20.8729 5.45605 19.1008C4.16485 17.3287 3.46923 15.1926 3.4693 13V12.0341L2.0718 13.4306C1.95628 13.5382 1.80349 13.5968 1.64562 13.5941C1.48775 13.5913 1.33713 13.5273 1.22548 13.4157C1.11383 13.304 1.04988 13.1534 1.04709 12.9955C1.04431 12.8377 1.10291 12.6849 1.21055 12.5694L3.64805 10.1319C3.7623 10.0177 3.91719 9.95364 4.07867 9.95364C4.24016 9.95364 4.39504 10.0177 4.5093 10.1319L6.9468 12.5694C7.00667 12.6251 7.05469 12.6924 7.08799 12.7672C7.1213 12.8419 7.13921 12.9226 7.14065 13.0044C7.1421 13.0862 7.12704 13.1675 7.0964 13.2434C7.06575 13.3193 7.02013 13.3882 6.96227 13.4461C6.9044 13.5039 6.83547 13.5496 6.75959 13.5802C6.68372 13.6108 6.60244 13.6259 6.52062 13.6245C6.4388 13.623 6.35811 13.6051 6.28336 13.5718C6.20861 13.5385 6.14133 13.4905 6.08555 13.4306L4.68805 12.0341V13C4.68632 15.328 5.57639 17.5682 7.17531 19.2603C8.13277 17.7715 9.56392 16.6488 11.2378 16.0733C10.4031 15.5173 9.76951 14.7076 9.43062 13.7637C9.09172 12.8198 9.06554 11.7919 9.35596 10.832C9.64637 9.87214 10.238 9.03117 11.0432 8.43346C11.8485 7.83576 12.8248 7.51305 13.8277 7.51305C14.8305 7.51305 15.8068 7.83576 16.6121 8.43346C17.4174 9.03117 18.0089 9.87214 18.2994 10.832C18.5898 11.7919 18.5636 12.8198 18.2247 13.7637C17.8858 14.7076 17.2522 15.5173 16.4175 16.0733C18.092 16.6494 19.5232 17.7733 20.48 19.2633C20.7571 18.9704 21.0143 18.6593 21.2498 18.332C21.2954 18.2643 21.3541 18.2065 21.4225 18.162C21.4908 18.1174 21.5674 18.0871 21.6477 18.0727C21.728 18.0583 21.8104 18.0601 21.8899 18.0782C21.9695 18.0962 22.0446 18.13 22.1109 18.1776C22.1771 18.2252 22.2331 18.2857 22.2756 18.3553C22.318 18.425 22.3461 18.5025 22.358 18.5832C22.37 18.6639 22.3656 18.7461 22.3452 18.8251C22.3247 18.9041 22.2887 18.9782 22.2391 19.0429H22.2431ZM13.8287 15.6406C14.5116 15.6406 15.1793 15.4381 15.7471 15.0586C16.315 14.6792 16.7576 14.1399 17.0189 13.5089C17.2803 12.878 17.3487 12.1836 17.2154 11.5138C17.0822 10.844 16.7533 10.2287 16.2704 9.74575C15.7875 9.26282 15.1722 8.93394 14.5023 8.8007C13.8325 8.66746 13.1382 8.73584 12.5072 8.9972C11.8762 9.25856 11.3369 9.70116 10.9575 10.269C10.5781 10.8369 10.3755 11.5045 10.3755 12.1875C10.3755 13.1033 10.7394 13.9816 11.3869 14.6292C12.0345 15.2768 12.9128 15.6406 13.8287 15.6406ZM13.8287 22.1406C15.9194 22.1387 17.9467 21.4219 19.5741 20.1094C18.9782 19.1181 18.1359 18.298 17.1293 17.7286C16.1226 17.1592 14.9857 16.8599 13.8292 16.8599C12.6726 16.8599 11.5358 17.1592 10.5291 17.7286C9.52242 18.298 8.6802 19.1181 8.0843 20.1094C9.70872 21.4265 11.7373 22.1439 13.8287 22.1406Z" fill="#785DBA"/>
</g>
<defs>
<clipPath id="clip0_3079_1139">
<rect width="26" height="26" fill="white" transform="translate(0.828613)"/>
</clipPath>
</defs>
</svg>
