<svg width="24" height="25" viewBox="0 0 24 25" fill="none" xmlns="http://www.w3.org/2000/svg">
<path d="M20.25 5.1582H3.75C3.55109 5.1582 3.36032 5.23722 3.21967 5.37787C3.07902 5.51853 3 5.70929 3 5.9082V19.4082C3 19.6071 3.07902 19.7979 3.21967 19.9385C3.36032 20.0792 3.55109 20.1582 3.75 20.1582H20.25C20.4489 20.1582 20.6397 20.0792 20.7803 19.9385C20.921 19.7979 21 19.6071 21 19.4082V5.9082C21 5.70929 20.921 5.51853 20.7803 5.37787C20.6397 5.23722 20.4489 5.1582 20.25 5.1582ZM9 14.1582C8.55499 14.1582 8.11998 14.0262 7.74997 13.779C7.37996 13.5318 7.09157 13.1804 6.92127 12.7692C6.75097 12.3581 6.70642 11.9057 6.79323 11.4692C6.88005 11.0328 7.09434 10.6319 7.40901 10.3172C7.72368 10.0025 8.12459 9.78825 8.56105 9.70144C8.9975 9.61462 9.4499 9.65918 9.86104 9.82947C10.2722 9.99977 10.6236 10.2882 10.8708 10.6582C11.118 11.0282 11.25 11.4632 11.25 11.9082C11.25 12.5049 11.0129 13.0772 10.591 13.4992C10.169 13.9212 9.59674 14.1582 9 14.1582Z" fill="black" fill-opacity="0.04"/>
<path d="M18.75 11.1582C18.75 11.3571 18.671 11.5479 18.5303 11.6885C18.3897 11.8292 18.1989 11.9082 18 11.9082H14.25C14.0511 11.9082 13.8603 11.8292 13.7197 11.6885C13.579 11.5479 13.5 11.3571 13.5 11.1582C13.5 10.9593 13.579 10.7685 13.7197 10.6279C13.8603 10.4872 14.0511 10.4082 14.25 10.4082H18C18.1989 10.4082 18.3897 10.4872 18.5303 10.6279C18.671 10.7685 18.75 10.9593 18.75 11.1582ZM18 13.4082H14.25C14.0511 13.4082 13.8603 13.4872 13.7197 13.6279C13.579 13.7685 13.5 13.9593 13.5 14.1582C13.5 14.3571 13.579 14.5479 13.7197 14.6885C13.8603 14.8292 14.0511 14.9082 14.25 14.9082H18C18.1989 14.9082 18.3897 14.8292 18.5303 14.6885C18.671 14.5479 18.75 14.3571 18.75 14.1582C18.75 13.9593 18.671 13.7685 18.5303 13.6279C18.3897 13.4872 18.1989 13.4082 18 13.4082ZM21.75 5.9082V19.4082C21.75 19.806 21.592 20.1876 21.3107 20.4689C21.0294 20.7502 20.6478 20.9082 20.25 20.9082H3.75C3.35218 20.9082 2.97064 20.7502 2.68934 20.4689C2.40804 20.1876 2.25 19.806 2.25 19.4082V5.9082C2.25 5.51038 2.40804 5.12885 2.68934 4.84754C2.97064 4.56624 3.35218 4.4082 3.75 4.4082H20.25C20.6478 4.4082 21.0294 4.56624 21.3107 4.84754C21.592 5.12885 21.75 5.51038 21.75 5.9082ZM20.25 19.4082V5.9082H3.75V19.4082H20.25ZM12.7256 16.2207C12.7754 16.4134 12.7465 16.618 12.6454 16.7894C12.5443 16.9608 12.3793 17.085 12.1866 17.1348C11.9939 17.1845 11.7893 17.1556 11.6179 17.0545C11.4465 16.9534 11.3222 16.7884 11.2725 16.5957C11.0259 15.6338 10.0481 14.9082 8.99906 14.9082C7.95 14.9082 6.97312 15.6338 6.72563 16.5957C6.6759 16.7884 6.55166 16.9534 6.38024 17.0545C6.20882 17.1556 6.00426 17.1845 5.81156 17.1348C5.61887 17.085 5.45382 16.9608 5.35272 16.7894C5.25163 16.618 5.22277 16.4134 5.2725 16.2207C5.51588 15.3148 6.09118 14.5337 6.88406 14.0326C6.46272 13.6137 6.17522 13.0792 6.05802 12.4968C5.94082 11.9144 5.99918 11.3102 6.22572 10.761C6.45226 10.2118 6.83676 9.74222 7.3305 9.41179C7.82423 9.08135 8.40496 8.90496 8.99906 8.90496C9.59317 8.90496 10.1739 9.08135 10.6676 9.41179C11.1614 9.74222 11.5459 10.2118 11.7724 10.761C11.9989 11.3102 12.0573 11.9144 11.9401 12.4968C11.8229 13.0792 11.5354 13.6137 11.1141 14.0326C11.9078 14.533 12.4836 15.3144 12.7266 16.2207H12.7256ZM9 13.4082C9.29667 13.4082 9.58668 13.3202 9.83335 13.1554C10.08 12.9906 10.2723 12.7563 10.3858 12.4822C10.4994 12.2081 10.5291 11.9065 10.4712 11.6156C10.4133 11.3246 10.2704 11.0573 10.0607 10.8475C9.85088 10.6378 9.58361 10.4949 9.29264 10.437C9.00166 10.3791 8.70006 10.4089 8.42597 10.5224C8.15189 10.6359 7.91762 10.8282 7.7528 11.0748C7.58797 11.3215 7.5 11.6115 7.5 11.9082C7.5 12.306 7.65804 12.6876 7.93934 12.9689C8.22064 13.2502 8.60218 13.4082 9 13.4082Z" fill="black"/>
</svg>
